<svg width="125" height="125" viewBox="0 0 125 125" fill="none" xmlns="http://www.w3.org/2000/svg">
<path fill-rule="evenodd" clip-rule="evenodd" d="M62.5 125C97.0178 125 125 97.0178 125 62.5C125 27.9822 97.0178 0 62.5 0C27.9822 0 0 27.9822 0 62.5C0 97.0178 27.9822 125 62.5 125ZM63 114C91.7188 114 115 90.7188 115 62C115 33.2812 91.7188 10 63 10C34.2812 10 11 33.2812 11 62C11 90.7188 34.2812 114 63 114Z" fill="#0DCAF0"/>
<line x1="113.619" y1="77.3969" x2="58.1112" y2="21.8893" stroke="#0DCAF0" stroke-width="11"/>
<line x1="115.654" y1="85.0311" x2="59.6972" y2="58.9379" stroke="#0DCAF0" stroke-width="11"/>
<line x1="92.3033" y1="109.589" x2="25.6903" y2="59.3923" stroke="#0DCAF0" stroke-width="11"/>
<line x1="65.9343" y1="21.8543" x2="10.9236" y2="77.8543" stroke="#0DCAF0" stroke-width="11"/>
<line x1="65.8641" y1="58.834" x2="46.8973" y2="77.8809" stroke="#0DCAF0" stroke-width="11"/>
<line x1="59.2365" y1="88.9432" x2="34.7572" y2="109.484" stroke="#0DCAF0" stroke-width="11"/>
</svg>
